<svg width="1440" height="573" viewBox="0 0 1440 573" fill="none" xmlns="http://www.w3.org/2000/svg">
<rect width="1440" height="573" fill="#C4C4C4" fill-opacity="0.4"/>
<path d="M583.668 300H581.246V286.367H564.996V300H562.594V271.562H564.996V284.336H581.246V271.562H583.668V300ZM606.617 292.031H593.707L590.777 300H588.258L599.02 271.562H601.305L612.066 300H609.566L606.617 292.031ZM594.449 289.98H605.855L600.152 274.492L594.449 289.98ZM618.648 271.562V297.969H630.016V271.562H632.418V297.969H643.746V271.562H646.148V300H616.227V271.562H618.648ZM669 292.031H656.09L653.16 300H650.641L661.402 271.562H663.688L674.449 300H671.949L669 292.031ZM656.832 289.98H668.238L662.535 274.492L656.832 289.98ZM694.781 286.66H690.875V300H688.473V271.562H690.875V284.609H694.664L705.66 271.562H708.688L697.008 285.547L709.547 300H706.559L694.781 286.66ZM734.312 287.324C734.312 289.941 733.857 292.24 732.945 294.219C732.047 296.198 730.758 297.721 729.078 298.789C727.398 299.857 725.458 300.391 723.258 300.391C719.938 300.391 717.255 299.206 715.211 296.836C713.167 294.453 712.145 291.243 712.145 287.207V284.277C712.145 281.686 712.6 279.395 713.512 277.402C714.436 275.397 715.738 273.861 717.418 272.793C719.098 271.712 721.031 271.172 723.219 271.172C725.406 271.172 727.333 271.699 729 272.754C730.68 273.809 731.975 275.299 732.887 277.227C733.798 279.154 734.273 281.387 734.312 283.926V287.324ZM731.91 284.238C731.91 280.814 731.135 278.132 729.586 276.191C728.036 274.251 725.914 273.281 723.219 273.281C720.576 273.281 718.466 274.258 716.891 276.211C715.328 278.151 714.547 280.866 714.547 284.355V287.324C714.547 290.697 715.328 293.372 716.891 295.352C718.453 297.318 720.576 298.301 723.258 298.301C725.979 298.301 728.102 297.331 729.625 295.391C731.148 293.438 731.91 290.723 731.91 287.246V284.238ZM743.551 271.562L754.039 296.66L764.566 271.562H767.77V300H765.367V287.617L765.562 274.922L754.977 300H753.121L742.574 275.02L742.77 287.539V300H740.367V271.562H743.551ZM790.68 292.031H777.77L774.84 300H772.32L783.082 271.562H785.367L796.129 300H793.629L790.68 292.031ZM778.512 289.98H789.918L784.215 274.492L778.512 289.98ZM821.402 300H818.98V286.367H802.73V300H800.328V271.562H802.73V284.336H818.98V271.562H821.402V300ZM850.113 297.969H853.141L853.121 306.895H850.719V300H829.273V306.895H826.871V297.969H828.766C830.211 296.458 831.376 294.258 832.262 291.367C833.16 288.464 833.701 285.286 833.883 281.836L834.391 271.562H850.113V297.969ZM831.559 297.969H847.711V273.613H836.695L836.305 281.758C836.135 285.143 835.634 288.262 834.801 291.113C833.98 293.965 832.9 296.25 831.559 297.969ZM873.688 292.031H860.777L857.848 300H855.328L866.09 271.562H868.375L879.137 300H876.637L873.688 292.031ZM861.52 289.98H872.926L867.223 274.492L861.52 289.98Z" fill="black"/>
</svg>
